<svg id="Calque_1" data-name="Calque 1" xmlns="http://www.w3.org/2000/svg" xmlns:xlink="http://www.w3.org/1999/xlink" viewBox="0 0 352.3 110.38"><defs><style>.cls-1{fill:none;}.cls-2{clip-path:url(#clip-path);}.cls-3{fill:#231f20;}</style><clipPath id="clip-path" transform="translate(-49.85 -42.13)"><rect class="cls-1" width="452.87" height="202.9"/></clipPath></defs><title>LOREAL_0288165</title><g class="cls-2"><path class="cls-3" d="M241.91,50.72h45.35v5.52H249.68V72.57h28.23v5.6H249.68V95.9h37.58v5.54H241.91Zm23.57-8.2-6.14,6.89,19.27-6.89Zm90.82,8.2v50.72h45.85V95.9H363.39V50.72ZM333.88,82,321.59,57.73,309.44,82Zm-7.31-31.23,25.82,50.72h-8.63L337.1,88.31H306.17l-6.6,13.13h-8.71l25.79-50.72ZM211.23,74.17c3.86,0,7.75-.72,9.8-4.11a9.46,9.46,0,0,0,1-7.36c-1.14-3.35-4.32-6-10-6H187.54V74.17h23.69m6.07,6.06c4.53,6.89,15.55,21.21,15.55,21.21h-9.19L208.35,80.16H187.54v21.28h-7.29V50.72h32c11,0,17.08,5.61,17.77,14.67.06,3.09-1.07,11.74-12.69,14.84m-46.27-6c0,18.67-15.48,31.52-34.57,31.52s-34.59-13-34.59-31.52c0-17.56,14-32.06,34.59-32.06,20.38,0,34.57,14.5,34.57,32.06m-8.31,0a25.74,25.74,0,0,0-25.95-25.75c-15.34,0-26.51,12-26.51,25.75s11.72,25.21,26,25.21S162.72,88,162.72,74.21m-79.2-5.55h5.25l9.55-17.94H90.64ZM50.72,50.72v50.72H96.56V95.9H57.81V50.72Z" transform="translate(-49.85 -42.13)"/><path class="cls-3" d="M49.85,139.5a12.78,12.78,0,0,1,13.08-13,13,13,0,1,1,0,26.05,12.68,12.68,0,0,1-13.08-13m24.38,0a11.32,11.32,0,1,0-22.64,0,11.32,11.32,0,1,0,22.64,0" transform="translate(-49.85 -42.13)"/><path class="cls-3" d="M99.37,135c0,5.71-4.15,8.38-9.61,8.38H83.48v8.78h-1.7V126.79h8.06c5.38,0,9.53,2.71,9.53,8.23m-1.81,0c0-4.4-3.35-6.68-7.76-6.68H83.48v13.51H89.8c4.44,0,7.76-2.24,7.76-6.83" transform="translate(-49.85 -42.13)"/><polygon class="cls-3" points="56.42 86.21 56.42 96.33 68.92 96.33 68.92 97.92 56.42 97.92 56.42 108.5 70.69 108.5 70.69 110.05 54.72 110.05 54.72 84.66 70.69 84.66 70.69 86.21 56.42 86.21"/><path class="cls-3" d="M142.14,152.18l-6-8.92a15.69,15.69,0,0,1-2.35.18H128v8.74h-1.7V126.79h7.84c5.52,0,9.53,2.49,9.53,8.31a7.72,7.72,0,0,1-5.67,7.73l6.29,9.35Zm-8.35-10.29c5,0,8.09-2.6,8.09-6.79,0-4.7-3.39-6.76-7.76-6.76H128v13.55Z" transform="translate(-49.85 -42.13)"/><path class="cls-3" d="M165.32,146.08H151.13l-2.56,6.1h-1.81l10.76-25.39H159l10.73,25.39h-1.84Zm-13.54-1.56h12.89l-6.42-15.35Z" transform="translate(-49.85 -42.13)"/><polygon class="cls-3" points="137.94 86.21 129.16 86.21 129.16 110.05 127.47 110.05 127.47 86.21 118.44 86.21 118.44 84.66 137.94 84.66 137.94 86.21"/><rect class="cls-3" x="142.24" y="84.66" width="1.7" height="25.39"/><path class="cls-3" d="M199.6,139.5a13.08,13.08,0,0,1,26.15,0,13.08,13.08,0,0,1-26.15,0m24.38,0a11.32,11.32,0,1,0-22.64,0,11.32,11.32,0,1,0,22.64,0" transform="translate(-49.85 -42.13)"/><polygon class="cls-3" points="202.27 84.66 202.27 110.27 201.11 110.27 183.38 87.69 183.38 110.05 181.68 110.05 181.68 84.44 182.84 84.44 200.57 107.02 200.57 84.66 202.27 84.66"/><path class="cls-3" d="M257.43,149.91l.94-1.45a12.38,12.38,0,0,0,7.51,2.46c3.9,0,6.58-2,6.58-5.24,0-3-1.81-4.7-6.61-6-5.17-1.37-7.52-3.25-7.52-6.9s3.25-6.35,7.88-6.35a11.55,11.55,0,0,1,7.26,2.2l-.87,1.3a10.21,10.21,0,0,0-6.39-1.95c-3.69,0-6.14,1.84-6.14,4.77s1.91,4,6.25,5.27c5.59,1.55,7.83,3.57,7.83,7.48,0,4.4-3.46,7-8.2,7a14.18,14.18,0,0,1-8.52-2.6" transform="translate(-49.85 -42.13)"/></g></svg>